<svg width="92" height="54" viewBox="0 0 92 54" fill="none" xmlns="http://www.w3.org/2000/svg">
<path d="M25.4881 31.8599C25.5421 31.8599 25.5961 31.8059 25.6501 31.8059C25.9201 31.8059 26.0821 32.0219 26.0821 32.2919C26.0821 32.5079 25.9741 32.7779 25.6501 32.8859C24.7321 33.2099 23.7601 33.4799 22.7881 33.8579C21.7621 34.1819 20.6821 34.6139 19.6561 34.9919C16.9021 40.9859 11.0701 51.7319 3.99609 53.0819C3.56409 53.1359 3.18609 53.1899 2.80809 53.1899C0.972088 53.1899 8.80435e-05 52.2179 8.80435e-05 50.6519C8.80435e-05 46.8719 5.67009 39.6359 18.8461 34.1819C22.8421 25.3799 25.0021 16.5779 25.0021 10.4219C25.0021 5.7239 23.7601 2.5379 21.1141 1.9439C20.8981 1.8899 20.6821 1.8899 20.4661 1.8899C15.9841 1.8899 8.42409 10.6379 8.42409 20.3579C8.42409 23.4899 9.23409 26.7299 11.1241 29.8079C11.1781 29.8619 11.1781 29.9159 11.1781 29.9699C11.1781 30.1859 11.0161 30.4559 10.8541 30.5639C10.7461 30.6179 10.6921 30.6179 10.5841 30.6179C10.3681 30.6179 10.2061 30.5099 10.0981 30.3479C8.10009 27.1619 7.29009 23.7599 7.29009 20.4659C7.29009 9.7199 15.9301 -0.000101566 21.2761 0.863897C24.8401 1.4579 26.1361 5.0759 26.1361 9.8279C26.1361 17.4419 22.8421 27.9719 20.3041 33.6419C21.9781 32.9939 23.7601 32.3999 25.4881 31.8599ZM4.21209 51.9479C10.2601 50.3819 15.4981 41.3099 18.1981 35.6399C6.42609 40.7699 1.13409 47.3579 1.13409 50.4359C1.13409 51.4619 1.78209 52.1099 3.02409 52.1099C3.34809 52.1099 3.78009 52.0559 4.21209 51.9479ZM62.4941 29.1059C62.7101 29.3759 62.7101 29.6999 62.4401 29.9159C60.7661 31.3739 58.1741 33.2639 55.0421 33.2639C51.9641 33.2639 51.6941 31.1579 51.5321 29.8619C51.5321 29.5379 51.4781 29.0519 51.3701 28.9439H51.3161C51.2621 28.9439 50.5601 28.9979 48.6701 30.8879C47.4821 32.0759 46.5101 33.2639 46.2401 33.6959C46.1861 33.8039 46.0781 33.8579 46.0241 33.9119C45.9161 33.9659 45.8621 33.9659 45.7541 33.9659C45.7001 33.9659 45.7001 33.9659 45.6461 33.9659C45.5381 33.9659 45.4841 33.9119 45.4301 33.8579C45.2681 33.7499 45.1601 33.5879 45.1601 33.3719C45.1601 33.2639 45.2141 33.2099 45.2141 33.1559C45.5381 31.6439 45.9161 30.1859 46.4561 28.7819C44.5661 30.2399 42.5681 31.3739 40.7321 32.0219C39.5981 32.4539 38.5181 32.6699 37.6541 32.6699C36.7361 32.6699 36.0341 32.3999 35.5481 31.9679C35.2781 31.6979 34.9541 31.2659 34.9541 30.5639C33.1721 32.4539 30.9041 34.5599 29.5541 34.6139C29.5541 34.6139 29.5001 34.6679 29.4461 34.6679C29.0681 34.6679 28.7981 34.5059 28.6361 34.3439C28.3661 34.0739 28.2581 33.7499 28.2581 33.3719C28.2581 32.4539 28.7981 31.3739 29.4461 30.4559C30.6881 28.8359 32.4701 27.5399 34.1981 27.5399C34.7381 27.5399 35.2781 27.7019 35.8181 27.9719C36.0341 27.7019 36.1961 27.4859 36.3581 27.3239C36.4661 27.1619 36.6281 27.1079 36.8441 27.1079C36.9521 27.1079 37.0601 27.1619 37.1681 27.2159C37.2761 27.3239 37.3841 27.5399 37.3841 27.7019C37.3841 27.8099 37.3301 27.9179 37.2761 28.0259C36.4661 29.0519 36.0881 29.9159 36.0881 30.5639C36.0881 30.7799 36.1421 30.9959 36.3041 31.1579C36.5741 31.3739 37.0061 31.5359 37.6001 31.5359C39.7061 31.5359 43.5401 30.0239 47.3741 26.5679C47.4281 26.4059 47.6441 26.3519 47.8061 26.3519C47.8601 26.3519 47.9681 26.3519 48.0221 26.4059C48.2381 26.4599 48.3461 26.6219 48.4001 26.7839V26.8919V26.9459C48.4001 26.9999 48.4001 27.0539 48.3461 27.1619C47.7521 28.4579 47.2661 29.7539 46.8881 31.1579C48.2381 29.6459 50.1821 27.8099 51.3161 27.8099C52.4501 27.8099 52.5581 28.9439 52.6661 29.7539C52.8281 30.9959 52.9361 32.1299 55.0421 32.1299C57.1481 32.1299 59.2541 31.1579 61.7381 29.0519C61.9541 28.8359 62.3321 28.8899 62.4941 29.1059ZM32.9021 31.0499C33.6041 30.3479 34.3601 29.5379 35.0081 28.8359C34.7381 28.7279 34.4681 28.6739 34.1981 28.6739C32.9561 28.6739 31.7141 29.5919 30.7961 30.6179C29.5541 32.0219 29.2301 33.3179 29.3921 33.4799C29.3921 33.5339 30.0941 33.7499 32.9021 31.0499ZM91.5065 29.1059C91.6145 29.2139 91.6685 29.3219 91.6685 29.4299C91.6685 29.6459 91.5605 29.8079 91.4525 29.9159C89.1845 32.1839 84.2705 33.6419 79.5185 35.5319C74.5505 48.0059 69.9065 52.5959 66.9365 52.5959H66.7205C65.4785 52.5959 64.5605 51.5699 64.2905 50.1119C64.2365 49.7879 64.1825 49.4639 64.1825 49.0859C64.1825 47.4119 64.8305 45.4139 66.0185 43.5239C68.9885 38.7719 73.5785 36.7199 78.6545 34.6679C79.4105 32.6699 79.9505 31.2659 80.3285 30.1859C79.0865 32.0219 77.3045 34.6139 75.9545 34.6139C75.6845 34.6139 75.4685 34.5059 75.2525 34.2899C75.0905 34.1279 74.8745 33.9119 74.8745 33.2099C74.8745 32.5619 75.0365 31.5359 75.6845 29.8079C75.9005 29.1599 76.2245 28.5119 76.4945 27.8639C73.6325 30.0779 70.2845 32.3999 68.0705 32.3999C65.3705 32.3459 66.0185 28.9979 65.4785 28.9439C65.1545 28.8899 64.4525 29.2679 62.8865 30.8879C61.8065 31.9679 60.8885 33.0479 60.5105 33.5879C60.5105 33.6419 60.4565 33.6959 60.4565 33.6959C60.3485 33.8579 60.1865 33.9119 59.9705 33.9119H59.9165C59.5925 33.9119 59.3765 33.5339 59.4305 33.2639C59.9165 30.9419 60.6725 28.7819 61.5365 26.6219C61.6445 26.3519 62.0225 26.1899 62.2925 26.3519C62.5625 26.5139 62.6705 26.8379 62.5625 27.1079C62.0225 28.4579 61.4825 29.7539 61.1045 31.1579C62.4545 29.5919 64.3985 27.7559 65.5325 27.7559C67.8005 27.7559 66.0185 31.2659 68.2865 31.2659C70.5545 31.3199 75.1985 27.3239 77.8985 25.3259C78.0065 25.2719 78.1145 25.2179 78.2225 25.2179C78.6545 25.2179 79.0325 25.8119 78.7085 26.1899C77.5205 27.3779 75.7385 32.5079 76.0085 33.4259C77.0885 33.4799 80.2745 27.3779 81.5165 27.3779C82.0565 27.3779 82.3265 27.8099 82.2185 28.1879C81.6245 30.3479 80.8145 32.2919 80.1125 34.0739C83.8925 32.6159 88.4285 30.8339 90.6965 29.0519C90.8045 28.9439 90.9665 28.8899 91.0745 28.8899C91.2365 28.8899 91.3985 28.9979 91.5065 29.1059ZM66.9365 51.4619C68.8805 51.4619 73.0925 48.0599 78.0605 36.1259C76.8185 36.6119 75.6305 37.1519 74.4425 37.7459C67.9625 40.9859 65.2625 45.9539 65.2625 49.0319C65.2625 49.3559 65.3165 49.6259 65.3705 49.8959C65.4785 50.4359 65.8565 51.4619 66.9365 51.4619Z" fill="black"/>
</svg>
