<svg width="60" height="240" viewBox="0 0 60 240" fill="none" xmlns="http://www.w3.org/2000/svg">
<g opacity="0.8">
<rect width="60" height="60" transform="translate(0 180)" fill="#B99692"/>
<path d="M24.5215 224.167C26.3159 225.652 28.4754 226.599 30.9508 226.761C32.9012 226.889 34.9374 226.889 36.8838 226.761C37.5541 226.717 38.2846 226.559 38.9138 226.304C39.6138 226.019 39.964 225.877 40.1419 225.898C40.3198 225.92 40.5779 226.108 41.0941 226.483C42.0043 227.146 43.151 227.622 44.8514 227.581C45.7113 227.56 46.1412 227.55 46.3337 227.226C46.5262 226.902 46.2865 226.454 45.807 225.557C45.1421 224.314 44.7208 222.89 45.3592 221.75C46.4586 220.12 47.3925 218.191 47.529 216.107C47.6023 214.987 47.6023 213.828 47.529 212.708C47.4381 211.32 47.101 210 46.561 208.792" stroke="#FBFAFA" stroke-width="1.5" stroke-linecap="round" stroke-linejoin="round"/>
<path d="M31.0897 219.873C37.1638 219.473 42.0021 214.612 42.4002 208.509C42.4781 207.314 42.4781 206.077 42.4002 204.883C42.0021 198.78 37.1638 193.919 31.0897 193.519C29.0175 193.382 26.8539 193.383 24.7859 193.519C18.7118 193.919 13.8735 198.78 13.4754 204.883C13.3975 206.077 13.3975 207.314 13.4754 208.509C13.6204 210.731 14.6127 212.79 15.7808 214.527C16.4591 215.744 16.0115 217.262 15.305 218.589C14.7956 219.545 14.5409 220.023 14.7454 220.369C14.9499 220.714 15.4067 220.725 16.3203 220.747C18.1271 220.791 19.3454 220.283 20.3125 219.577C20.861 219.176 21.1352 218.976 21.3242 218.953C21.5132 218.93 21.8852 219.082 22.629 219.385C23.2976 219.658 24.0738 219.826 24.7859 219.873C26.8539 220.009 29.0175 220.01 31.0897 219.873Z" stroke="#FBFAFA" stroke-width="1.5" stroke-linejoin="round"/>
<path d="M28.3623 206.55H28.3774M35.0742 206.55H35.0893M21.6504 206.55H21.6655" stroke="#FBFAFA" stroke-width="2" stroke-linecap="round" stroke-linejoin="round"/>
</g>
</svg>
