<svg width="41" height="41" viewBox="0 0 41 41" fill="none" xmlns="http://www.w3.org/2000/svg">
<path d="M14.5215 34.1665C16.3159 35.6522 18.4754 36.5988 20.9508 36.7612C22.9012 36.8891 24.9374 36.8889 26.8838 36.7612C27.5541 36.7172 28.2846 36.5594 28.9138 36.3036C29.6138 36.0192 29.964 35.8768 30.1419 35.8984C30.3198 35.92 30.5779 36.1078 31.0941 36.4835C32.0043 37.1459 33.151 37.6216 34.8514 37.5807C35.7113 37.5601 36.1412 37.5497 36.3337 37.2259C36.5262 36.9021 36.2865 36.4538 35.807 35.5572C35.1421 34.3137 34.7208 32.8902 35.3592 31.7496C36.4586 30.1204 37.3925 28.1909 37.529 26.1071C37.6023 24.9874 37.6023 23.8278 37.529 22.7082C37.4381 21.3197 37.101 19.9997 36.561 18.7915" stroke="#FBFAFA" stroke-width="1.5" stroke-linecap="round" stroke-linejoin="round"/>
<path d="M21.0897 29.8731C27.1638 29.473 32.0021 24.6117 32.4002 18.5086C32.4781 17.3143 32.4781 16.0775 32.4002 14.8832C32.0021 8.78013 27.1638 3.91877 21.0897 3.51875C19.0175 3.38228 16.8539 3.38256 14.7859 3.51875C8.71185 3.91877 3.87354 8.78013 3.47542 14.8832C3.39751 16.0775 3.39751 17.3143 3.47542 18.5086C3.62042 20.7314 4.61268 22.7895 5.78085 24.5273C6.45912 25.744 6.01149 27.2625 5.30501 28.5888C4.79561 29.5451 4.54092 30.0233 4.74542 30.3688C4.94992 30.7142 5.40672 30.7252 6.32032 30.7472C8.12707 30.7908 9.34539 30.2834 10.3125 29.5769C10.861 29.1761 11.1352 28.9758 11.3242 28.9528C11.5132 28.9297 11.8852 29.0815 12.629 29.385C13.2976 29.6578 14.0738 29.8262 14.7859 29.8731C16.8539 30.0092 19.0175 30.0095 21.0897 29.8731Z" stroke="#FBFAFA" stroke-width="1.5" stroke-linejoin="round"/>
<path d="M18.3623 16.5498H18.3774M25.0742 16.5498H25.0893M11.6504 16.5498H11.6655" stroke="#FBFAFA" stroke-width="2" stroke-linecap="round" stroke-linejoin="round"/>
</svg>
